# xmcd
#
# Track frame offsets:
#	150
#	17997
#	28071
#	45786
#	62673
#	69210
#	84002
#	94369
#	110216
#	112613
#	127557
#	139684
#	157851
#
# Disc length: 2253 seconds
#
# Revision: 0
# Processed by: cddbd v1.4PL0 Copyright (c) Steve Scherf et al.
# Submitted via: dBpowerAMP V4.0
#
DISCID=9108cb0d
DTITLE=ALKINOOS IWANNIDIS - O dromos, o xronos kai o ponos
DYEAR=1900
DGENRE=
TTITLE0=Edgar Allan Poe
TTITLE1=Sto telos toy mai
TTITLE2=Kathreptis
TTITLE3=Miso feggari
TTITLE4=Exw mia leksi
TTITLE5=Osa h agapi oneireyetai
TTITLE6=O dromos, o xronos kai o ponos
TTITLE7=Bythos
TTITLE8=Stagones 
TTITLE9=Fws
TTITLE10=Stagones sto gialo
TTITLE11=Mayrh petaloyda
TTITLE12=Hsyxia
EXTD=O dromos, o xronos kai o ponos\nALKINOOS IWANNIDIS\n1.Alkinoos Iwannidis/Edgar Allan Poe\n2.Alkinoos Iwannidis/Sto telos toy mai\n3.Alkinoos Iwannidis/Kathreptis\n4.Alkinoos Iwannidis/Miso feggari\n5.Alkinoos Iwannidis/Exw mia leksi\n6.Alkinoos Iwa
EXTD=nnidis/Osa h agapi oneireyetai\n7.Alkinoos Iwannidis/O dromos, o xronos kai o ponos\n8.Alkinoos Iwannidis/Bythos\n9.Alkinoos Iwannidis/Stagones \n10.Alkinoos Iwannidis/Fws\n11.Alkinoos Iwannidis/Stagones sto gialo\n12.Alkinoos Iwannidis/Mayrh petal
EXTD=oyda\n13.Alkinoos Iwannidis/Hsyxia\n
EXTT0=
EXTT1=
EXTT2=
EXTT3=
EXTT4=
EXTT5=
EXTT6=
EXTT7=
EXTT8=
EXTT9=
EXTT10=
EXTT11=
EXTT12=
PLAYORDER=
